<svg width="157" height="195" viewBox="0 0 157 195" fill="none" xmlns="http://www.w3.org/2000/svg">
<path fill-rule="evenodd" clip-rule="evenodd" d="M79.4411 24.0361C83.2418 24.5251 86.8214 25.7191 90.0459 27.4815L93.3069 22.992L99.6249 27.5835L96.3607 32.0774C99.0664 34.6381 101.301 37.6921 102.919 41.0957L108.194 39.3813L110.608 46.8104L105.332 48.525C105.668 50.3327 105.845 52.1967 105.845 54.1019C105.845 56.007 105.669 57.8712 105.333 59.6789L110.608 61.3933L108.194 68.8225L102.921 67.1084C101.302 70.5122 99.0677 73.5668 96.3614 76.1273L99.6249 80.6203L93.3069 85.2117L90.0457 80.722C86.821 82.4842 83.2417 83.6787 79.4411 84.1677V89.7181H71.6316V84.168C67.8311 83.6788 64.251 82.4855 61.0264 80.7229L57.7659 85.2117L51.4478 80.6203L54.7121 76.1262C52.0064 73.5654 49.7717 70.5118 48.1531 67.1082L42.8784 68.8225L40.4651 61.3933L45.7419 59.6784C45.4058 57.8706 45.2282 56.0071 45.2282 54.1019C45.2282 52.1967 45.404 50.3325 45.7402 48.5248L40.4651 46.8104L42.8784 39.3813L48.1522 41.0953C49.771 37.6915 52.005 34.6369 54.7113 32.0764L51.4478 27.5835L57.7659 22.992L61.0271 27.4818C64.2518 25.7195 67.831 24.5251 71.6316 24.0361V18.4857H79.4411V24.0361Z" fill="url(#paint0_linear_173_122)"/>
<path fill-rule="evenodd" clip-rule="evenodd" d="M75.079 55.5889V74.8011C64.4711 74.8011 55.8715 66.1995 55.8715 55.5889H75.079Z" fill="#FEFEFE"/>
<path fill-rule="evenodd" clip-rule="evenodd" d="M76.9069 55.5889V74.8011C87.5148 74.8011 96.1144 66.1995 96.1144 55.5889H76.9069Z" fill="#FEFEFE"/>
<path fill-rule="evenodd" clip-rule="evenodd" d="M76.9069 54.1019V34.8896C87.5148 34.8896 96.1144 43.4913 96.1144 54.1019H76.9069Z" fill="#FEFEFE"/>
<path fill-rule="evenodd" clip-rule="evenodd" d="M75.079 54.1019V34.8896C64.4711 34.8896 55.8715 43.4913 55.8715 54.1019H75.079Z" fill="#FEFEFE"/>
<path fill-rule="evenodd" clip-rule="evenodd" d="M77.5398 7.92786L100.998 12.051L124.456 16.174L101.277 21.653L78.098 27.1321L54.6398 23.009L31.1816 18.8859L54.3608 13.407L77.5398 7.92786Z" fill="#48887B"/>
<path fill-rule="evenodd" clip-rule="evenodd" d="M99.5754 22.0552L78.098 27.1321L54.6398 23.009L51.1023 22.3872L51.4541 34.4912C58.3634 36.7261 67.9045 37.9581 78.4037 37.6529C86.4407 37.4192 93.8652 36.3189 99.941 34.6347L99.5754 22.0552Z" fill="url(#paint1_linear_173_122)"/>
<path fill-rule="evenodd" clip-rule="evenodd" d="M78.098 27.1321L99.5754 22.0552L101.277 21.653L124.456 16.174L100.998 12.051L77.5398 7.92786L54.3608 13.407L31.1816 18.8859L51.1023 22.3872L54.6398 23.009L78.098 27.1321Z" fill="url(#paint2_linear_173_122)"/>
<path d="M94.9342 66.4593H87.183V74.2123H94.9342V66.4593Z" fill="#52658C"/>
<path fill-rule="evenodd" clip-rule="evenodd" d="M87.183 74.2123L79.432 81.9652H87.183V74.2123Z" fill="#6B809B"/>
<path fill-rule="evenodd" clip-rule="evenodd" d="M87.183 81.9652V74.2123L79.432 81.9652H87.183Z" fill="#585570"/>
<path fill-rule="evenodd" clip-rule="evenodd" d="M87.183 81.9652L79.432 89.7183H87.183V81.9652Z" fill="#585570"/>
<path fill-rule="evenodd" clip-rule="evenodd" d="M94.9341 66.4593C99.2149 66.4593 102.685 69.9305 102.685 74.2123H109.579V73.4936V66.4593H94.9341Z" fill="#585570"/>
<path fill-rule="evenodd" clip-rule="evenodd" d="M94.9342 74.2123V66.4593H87.183V74.2123H94.9342Z" fill="#57A695"/>
<path fill-rule="evenodd" clip-rule="evenodd" d="M87.183 74.2123H94.9342V66.4593H87.183V74.2123Z" fill="#51A8B1"/>
<path fill-rule="evenodd" clip-rule="evenodd" d="M102.685 74.2123C102.685 78.4941 99.2149 81.9652 94.9341 81.9652V88.8777C103.032 88.8777 109.596 82.3117 109.596 74.2123C109.596 73.9713 109.59 73.7317 109.579 73.4936V74.2123H102.685Z" fill="#51A8B1"/>
<path fill-rule="evenodd" clip-rule="evenodd" d="M94.9342 81.9652V74.2123L87.183 81.9652H94.9342Z" fill="#585570"/>
<defs>
<linearGradient id="paint0_linear_173_122" x1="62.458" y1="76.5204" x2="109.798" y2="30.7309" gradientUnits="userSpaceOnUse">
<stop stop-color="#606062"/>
<stop offset="0.74902" stop-color="#AFAFB0"/>
<stop offset="1" stop-color="#FEFEFE"/>
</linearGradient>
<linearGradient id="paint1_linear_173_122" x1="59.9691" y1="30.7581" x2="108.411" y2="29.3504" gradientUnits="userSpaceOnUse">
<stop stop-color="#48887B"/>
<stop offset="0.639216" stop-color="#A3C3BD"/>
<stop offset="1" stop-color="white"/>
</linearGradient>
<linearGradient id="paint2_linear_173_122" x1="31.2537" y1="25.9722" x2="115.064" y2="8.4488" gradientUnits="userSpaceOnUse">
<stop stop-color="#1CB7C7"/>
<stop offset="0.611765" stop-color="#8DDBE3"/>
<stop offset="1" stop-color="white"/>
</linearGradient>
</defs>
</svg>
