<svg width="94" height="83" viewBox="0 0 94 83" fill="none" xmlns="http://www.w3.org/2000/svg">
<path fill-rule="evenodd" clip-rule="evenodd" d="M48.4411 17.0361C52.2418 17.5251 55.8214 18.7191 59.0459 20.4815L62.3069 15.992L68.6249 20.5835L65.3607 25.0774C68.0664 27.6381 70.3007 30.6921 71.9194 34.0957L77.1944 32.3813L79.6077 39.8104L74.332 41.525C74.6682 43.3327 74.8445 45.1967 74.8445 47.1019C74.8445 49.007 74.6687 50.8712 74.3326 52.6789L79.6077 54.3933L77.1944 61.8225L71.9205 60.1084C70.3017 63.5122 68.0677 66.5668 65.3614 69.1273L68.6249 73.6203L62.3069 78.2117L59.0457 73.722C55.821 75.4842 52.2417 76.6787 48.4411 77.1677V82.7181H40.6316V77.168C36.8311 76.6788 33.251 75.4855 30.0264 73.7229L26.7659 78.2117L20.4478 73.6203L23.7121 69.1262C21.0064 66.5654 18.7717 63.5118 17.1531 60.1082L11.8784 61.8225L9.46506 54.3933L14.7419 52.6784C14.4058 50.8706 14.2282 49.0071 14.2282 47.1019C14.2282 45.1967 14.404 43.3325 14.7402 41.5248L9.46506 39.8104L11.8784 32.3813L17.1522 34.0953C18.771 30.6915 21.005 27.6369 23.7113 25.0764L20.4478 20.5835L26.7659 15.992L30.0271 20.4818C33.2518 18.7195 36.831 17.5251 40.6316 17.0361V11.4857H48.4411V17.0361Z" fill="url(#paint0_linear_173_123)"/>
<path fill-rule="evenodd" clip-rule="evenodd" d="M44.079 48.5889V67.8011C33.4711 67.8011 24.8715 59.1995 24.8715 48.5889H44.079Z" fill="#FEFEFE"/>
<path fill-rule="evenodd" clip-rule="evenodd" d="M45.9069 48.5889V67.8011C56.5148 67.8011 65.1144 59.1995 65.1144 48.5889H45.9069Z" fill="#FEFEFE"/>
<path fill-rule="evenodd" clip-rule="evenodd" d="M45.9069 47.1019V27.8896C56.5148 27.8896 65.1144 36.4913 65.1144 47.1019H45.9069Z" fill="#FEFEFE"/>
<path fill-rule="evenodd" clip-rule="evenodd" d="M44.079 47.1019V27.8896C33.4711 27.8896 24.8715 36.4913 24.8715 47.1019H44.079Z" fill="#FEFEFE"/>
<path fill-rule="evenodd" clip-rule="evenodd" d="M46.5398 0.927856L69.998 5.05097L93.4562 9.17401L70.277 14.653L47.098 20.1321L23.6398 16.009L0.181641 11.8859L23.3608 6.40696L46.5398 0.927856Z" fill="#48887B"/>
<path fill-rule="evenodd" clip-rule="evenodd" d="M68.5754 15.0552L47.098 20.1321L23.6398 16.009L20.1023 15.3872L20.4541 27.4912C27.3634 29.7261 36.9045 30.9581 47.4037 30.6529C55.4407 30.4192 62.8652 29.3189 68.941 27.6347L68.5754 15.0552Z" fill="url(#paint1_linear_173_123)"/>
<path fill-rule="evenodd" clip-rule="evenodd" d="M47.098 20.1321L68.5754 15.0552L70.277 14.653L93.4562 9.17401L69.998 5.05097L46.5398 0.927856L23.3608 6.40696L0.181641 11.8859L20.1023 15.3872L23.6398 16.009L47.098 20.1321Z" fill="url(#paint2_linear_173_123)"/>
<path d="M63.9342 59.4593H56.183V67.2123H63.9342V59.4593Z" fill="#52658C"/>
<path fill-rule="evenodd" clip-rule="evenodd" d="M56.183 67.2123L48.432 74.9652H56.183V67.2123Z" fill="#6B809B"/>
<path fill-rule="evenodd" clip-rule="evenodd" d="M56.183 74.9652V67.2123L48.432 74.9652H56.183Z" fill="#585570"/>
<path fill-rule="evenodd" clip-rule="evenodd" d="M56.183 74.9652L48.432 82.7183H56.183V74.9652Z" fill="#585570"/>
<path fill-rule="evenodd" clip-rule="evenodd" d="M63.9341 59.4593C68.2149 59.4593 71.6852 62.9305 71.6852 67.2123H78.5786V66.4936V59.4593H63.9341Z" fill="#585570"/>
<path fill-rule="evenodd" clip-rule="evenodd" d="M63.9342 67.2123V59.4593H56.183V67.2123H63.9342Z" fill="#57A695"/>
<path fill-rule="evenodd" clip-rule="evenodd" d="M56.183 67.2123H63.9342V59.4593H56.183V67.2123Z" fill="#51A8B1"/>
<path fill-rule="evenodd" clip-rule="evenodd" d="M71.6852 67.2123C71.6852 71.4941 68.2149 74.9652 63.9341 74.9652V81.8777C72.0316 81.8777 78.5959 75.3117 78.5959 67.2123C78.5959 66.9713 78.5901 66.7317 78.5786 66.4936V67.2123H71.6852Z" fill="#51A8B1"/>
<path fill-rule="evenodd" clip-rule="evenodd" d="M63.9342 74.9652V67.2123L56.183 74.9652H63.9342Z" fill="#585570"/>
<defs>
<linearGradient id="paint0_linear_173_123" x1="31.458" y1="69.5204" x2="78.7983" y2="23.7309" gradientUnits="userSpaceOnUse">
<stop stop-color="#606062"/>
<stop offset="0.74902" stop-color="#AFAFB0"/>
<stop offset="1" stop-color="#FEFEFE"/>
</linearGradient>
<linearGradient id="paint1_linear_173_123" x1="28.9691" y1="23.7581" x2="77.411" y2="22.3504" gradientUnits="userSpaceOnUse">
<stop stop-color="#48887B"/>
<stop offset="0.639216" stop-color="#A3C3BD"/>
<stop offset="1" stop-color="white"/>
</linearGradient>
<linearGradient id="paint2_linear_173_123" x1="0.253723" y1="18.9722" x2="84.0643" y2="1.4488" gradientUnits="userSpaceOnUse">
<stop stop-color="#1CB7C7"/>
<stop offset="0.611765" stop-color="#8DDBE3"/>
<stop offset="1" stop-color="white"/>
</linearGradient>
</defs>
</svg>
