<svg width="35" height="35" viewBox="0 0 35 35" fill="none" xmlns="http://www.w3.org/2000/svg">
<g clip-path="url(#clip0_185_43)">
<path d="M17.5 0C14.0388 0 10.6554 1.02636 7.77752 2.94928C4.89966 4.87221 2.65665 7.60533 1.33211 10.803C0.00757869 14.0007 -0.33898 17.5194 0.336262 20.9141C1.0115 24.3087 2.67822 27.427 5.12564 29.8744C7.57305 32.3218 10.6913 33.9885 14.0859 34.6637C17.4806 35.339 20.9993 34.9924 24.197 33.6679C27.3947 32.3434 30.1278 30.1003 32.0507 27.2225C33.9736 24.3446 35 20.9612 35 17.5C34.995 12.8603 33.1496 8.41197 29.8688 5.13117C26.588 1.85037 22.1398 0.00501824 17.5 0V0ZM23.3333 18.9583H18.9583V23.3333C18.9583 23.7201 18.8047 24.091 18.5312 24.3645C18.2577 24.638 17.8868 24.7917 17.5 24.7917C17.1132 24.7917 16.7423 24.638 16.4688 24.3645C16.1953 24.091 16.0417 23.7201 16.0417 23.3333V18.9583H11.6667C11.2799 18.9583 10.909 18.8047 10.6355 18.5312C10.362 18.2577 10.2083 17.8868 10.2083 17.5C10.2083 17.1132 10.362 16.7423 10.6355 16.4688C10.909 16.1953 11.2799 16.0417 11.6667 16.0417H16.0417V11.6667C16.0417 11.2799 16.1953 10.909 16.4688 10.6355C16.7423 10.362 17.1132 10.2083 17.5 10.2083C17.8868 10.2083 18.2577 10.362 18.5312 10.6355C18.8047 10.909 18.9583 11.2799 18.9583 11.6667V16.0417H23.3333C23.7201 16.0417 24.091 16.1953 24.3645 16.4688C24.638 16.7423 24.7917 17.1132 24.7917 17.5C24.7917 17.8868 24.638 18.2577 24.3645 18.5312C24.091 18.8047 23.7201 18.9583 23.3333 18.9583Z" fill="#74A3A9"/>
</g>
<defs>
<clipPath id="clip0_185_43">
<rect width="35" height="35" fill="white"/>
</clipPath>
</defs>
</svg>
