<svg width="45" height="45" viewBox="0 0 45 45" fill="none" xmlns="http://www.w3.org/2000/svg">
<g clip-path="url(#clip0_185_62)">
<path d="M35.625 0H9.375C6.88951 0.00297723 4.50667 0.991654 2.74916 2.74916C0.991654 4.50667 0.00297723 6.88951 0 9.375L0 35.625C0.00297723 38.1105 0.991654 40.4933 2.74916 42.2508C4.50667 44.0083 6.88951 44.997 9.375 45V39.375C9.375 35.894 10.7578 32.5556 13.2192 30.0942C15.6806 27.6328 19.019 26.25 22.5 26.25C25.981 26.25 29.3194 27.6328 31.7808 30.0942C34.2422 32.5556 35.625 35.894 35.625 39.375V45C38.1105 44.997 40.4933 44.0083 42.2508 42.2508C44.0083 40.4933 44.997 38.1105 45 35.625V9.375C44.997 6.88951 44.0083 4.50667 42.2508 2.74916C40.4933 0.991654 38.1105 0.00297723 35.625 0V0ZM22.5 22.5C21.0166 22.5 19.5666 22.0601 18.3332 21.236C17.0999 20.4119 16.1386 19.2406 15.5709 17.8701C15.0032 16.4997 14.8547 14.9917 15.1441 13.5368C15.4335 12.082 16.1478 10.7456 17.1967 9.6967C18.2456 8.6478 19.582 7.9335 21.0368 7.64411C22.4917 7.35472 23.9997 7.50325 25.3701 8.0709C26.7406 8.63856 27.9119 9.59985 28.736 10.8332C29.5601 12.0666 30 13.5166 30 15C30 16.9891 29.2098 18.8968 27.8033 20.3033C26.3968 21.7098 24.4891 22.5 22.5 22.5Z" fill="#74A3A9"/>
<path d="M22.4997 18.75C24.5708 18.75 26.2497 17.0711 26.2497 15C26.2497 12.9289 24.5708 11.25 22.4997 11.25C20.4286 11.25 18.7497 12.9289 18.7497 15C18.7497 17.0711 20.4286 18.75 22.4997 18.75Z" fill="#74A3A9"/>
<path d="M22.4997 30.0006C20.0142 30.0036 17.6314 30.9923 15.8739 32.7498C14.1163 34.5073 13.1277 36.8901 13.1247 39.3756V45.0006H31.8747V39.3756C31.8717 36.8901 30.883 34.5073 29.1255 32.7498C27.368 30.9923 24.9852 30.0036 22.4997 30.0006V30.0006Z" fill="#74A3A9"/>
</g>
<defs>
<clipPath id="clip0_185_62">
<rect width="45" height="45" fill="white"/>
</clipPath>
</defs>
</svg>
