<svg width="86" height="86" viewBox="0 0 86 86" fill="none" xmlns="http://www.w3.org/2000/svg">
<path d="M31.6588 30.3102C31.5065 27.1446 32.6141 24.0476 34.7394 21.6961C36.8646 19.3447 39.8346 17.9303 43 17.7621C46.1654 17.9303 49.1354 19.3447 51.2607 21.6961C53.3859 24.0476 54.4935 27.1446 54.3413 30.3102C54.4882 33.4717 53.3781 36.563 51.2532 38.909C49.1283 41.255 46.1612 42.6651 43 42.8314C39.8388 42.6651 36.8718 41.255 34.7469 38.909C32.6219 36.563 31.5118 33.4717 31.6588 30.3102ZM80.7325 42.9926C80.7439 50.4816 78.5063 57.8016 74.3094 64.0047C74.1995 64.1942 74.0736 64.374 73.9331 64.5421C70.4656 69.5341 65.841 73.6127 60.4543 76.4295C55.0676 79.2463 49.079 80.7176 43 80.7176C36.921 80.7176 30.9324 79.2463 25.5457 76.4295C20.159 73.6127 15.5344 69.5341 12.0669 64.5421C11.9264 64.374 11.8005 64.1942 11.6906 64.0047C8.40518 59.1118 6.31225 53.5174 5.57969 47.6699C4.84714 41.8224 5.49536 35.8846 7.47235 30.3328C9.44935 24.781 12.7001 19.7697 16.9639 15.7007C21.2277 11.6317 26.3859 8.61827 32.0248 6.90214C37.6637 5.18601 43.6264 4.81491 49.4346 5.81861C55.2429 6.82231 60.735 9.17287 65.4706 12.6818C70.2063 16.1907 74.0535 20.7603 76.7039 26.0241C79.3543 31.2879 80.7341 37.0995 80.7325 42.9926ZM9.29876 42.9926C9.28866 48.7174 10.741 54.3499 13.5181 59.3562C19.35 51.6984 30.53 46.9156 43 46.9156C55.47 46.9156 66.65 51.6984 72.4819 59.3562C74.9793 54.8575 76.4133 49.8469 76.6741 44.7083C76.9348 39.5698 76.0154 34.4397 73.9862 29.7114C71.957 24.9831 68.8719 20.7821 64.9675 17.4304C61.063 14.0786 56.4429 11.6652 51.4611 10.3749C46.4793 9.08473 41.2682 8.95203 36.2272 9.98702C31.1862 11.022 26.4491 13.1972 22.3791 16.3459C18.309 19.4945 15.0141 23.5331 12.7468 28.152C10.4795 32.7709 9.29999 37.8475 9.29876 42.9926Z" fill="#74A3A9"/>
</svg>
